<?xml version="1.0" encoding="UTF-8" standalone="no"?>
<!DOCTYPE svg PUBLIC "-//W3C//DTD SVG 1.1//EN" "http://www.w3.org/Graphics/SVG/1.1/DTD/svg11.dtd">
<svg width="100%" height="100%" viewBox="0 0 1080 1090" version="1.1" xmlns="http://www.w3.org/2000/svg" xmlns:xlink="http://www.w3.org/1999/xlink" xml:space="preserve" xmlns:serif="http://www.serif.com/" style="fill-rule:evenodd;clip-rule:evenodd;stroke-linejoin:round;stroke-miterlimit:2;">
    <g id="Calendario" transform="matrix(1.802828,0,0,1.802828,124.882782,17.362783)">
        <path d="M419.537,519.961C387.797,520.985 75.423,520.199 45.5,520.123C14.499,520.045 2.969,494.427 2.764,480.49C2.617,470.552 2.71,198.979 2.718,174.5C2.718,173.98 2.72,168.291 4.461,168.238C5.322,168.211 5.185,168.213 445.5,168.213C446.486,168.213 457.526,168.213 457.763,169.402C457.934,170.256 458.03,478.876 457.71,481.523C453.735,514.411 423.815,519.267 419.537,519.961ZM363.5,302.888C425.265,302.888 426.282,302.589 426.644,304.475C426.687,304.698 426.683,304.671 426.682,373.5C426.682,381.796 429.72,385.716 421.5,385.723C344.872,385.785 344.433,385.56 343.985,384.389C343.071,381.996 343.846,311.815 343.916,305.505C343.959,301.582 355.258,302.898 363.5,302.888ZM63.5,302.888C114.955,302.888 116.055,302.543 116.345,304.522C116.38,304.76 116.376,304.729 116.376,373.5C116.376,381.88 118.952,385.722 110.5,385.723C35.138,385.724 34.467,385.935 33.827,384.411C33.529,383.702 33.715,311.816 33.732,305.503C33.741,301.963 37.892,302.888 63.5,302.888ZM318.5,302.888C322.541,303.332 322.687,303.057 323.011,303.747C323.89,305.618 323.271,377.105 323.215,383.484C323.189,386.576 318.575,385.723 317.5,385.723C241.864,385.725 241.084,385.927 240.699,384.439C240.448,383.468 240.608,304.534 240.611,304.516C240.904,302.617 241.98,302.888 318.5,302.888ZM151.5,302.888C218.462,302.888 218.749,302.762 219.382,303.585C220.909,305.571 219.847,377.126 219.752,383.52C219.702,386.862 208.519,385.723 204.5,385.723C138.812,385.723 137.208,386.119 137.16,383.529C137.157,383.33 137.126,306.052 137.189,304.44C137.283,302.048 151.016,302.889 151.5,302.888ZM417.5,488.924C345.65,488.924 345.676,488.933 345.41,488.876C343.916,488.557 343.916,481.181 343.916,480.5C343.911,407.592 343.814,407.307 344.635,406.688C345.678,405.9 425.126,406.327 425.516,406.458C426.678,406.848 426.682,413.85 426.682,414.5C426.722,481.763 427.939,481.837 426.615,487.527C425.979,490.255 424.874,488.778 417.5,488.924ZM360.5,282.071C355.649,282.071 344.126,282.866 343.94,280.443C343.319,272.375 343.863,208.738 343.916,202.503C343.954,198.015 345.978,199.536 350.5,199.535C425.195,199.528 426.591,199.244 426.665,201.482C426.669,201.585 426.739,280.014 426.631,280.526C426.245,282.357 425.269,282.071 360.5,282.071ZM111.5,488.924C34.847,488.924 34.485,489.046 33.998,488.181C32.962,486.338 33.674,414.888 33.738,408.515C33.768,405.452 38.469,406.295 39.5,406.295C114.948,406.293 115.575,406.091 116.258,407.573C116.503,408.105 116.35,486.569 116.322,487.466C116.241,490.074 114.894,488.7 111.5,488.924ZM281.5,488.924C241.774,488.924 241.469,489.107 240.9,488.215C239.607,486.189 240.505,414.882 240.586,408.506C240.625,405.399 246.334,406.295 248.5,406.295C321.922,406.295 322.713,406.07 323.131,407.598C323.314,408.266 323.203,487.108 323.18,487.445C323.059,489.306 321.994,488.924 281.5,488.924ZM143.5,488.924C138.589,488.831 138.47,489.307 137.616,488.391C137.153,487.895 137.153,481.132 137.153,480.5C137.145,407.55 137.091,407.349 137.746,406.772C138.861,405.789 218.45,406.407 218.524,406.43C219.755,406.809 219.759,413.847 219.76,414.5C219.799,481.785 221.062,481.866 219.693,487.547C219.305,489.157 218.452,488.924 143.5,488.924ZM48.5,282.071C47.765,282.071 35.666,282.311 34.384,281.648C32.68,280.766 33.647,208.833 33.732,202.502C33.794,197.894 35.926,199.535 40.5,199.535C114.849,199.533 116.304,199.209 116.362,201.513C116.365,201.638 116.421,279.936 116.334,280.472C116.03,282.359 114.975,282.071 48.5,282.071ZM275.5,282.071C244.844,282.071 242.355,282.181 241.356,281.714C239.116,280.669 240.473,207.924 240.593,201.509C240.645,198.724 246.691,199.535 248.5,199.535C322.014,199.535 322.668,199.344 323.087,200.642C323.464,201.805 323.24,273.186 323.22,279.494C323.21,282.675 321.311,282.071 275.5,282.071ZM137.153,264.5C137.153,201.15 137.108,201.104 137.391,200.443C138.152,198.661 218.595,199.548 219.116,199.957C220.316,200.898 219.887,280.788 219.351,281.387C217.497,283.46 145.901,282.183 139.514,282.069C135.96,282.006 137.172,270.761 137.153,264.5Z" style="fill:rgb(39,24,110);fill-opacity:1;"/>
        <path d="M50.5,65.089L405.5,65.089C409.97,65.089 450.598,59.599 457.566,102.49C457.928,104.722 458.386,146.34 457.331,147.319C456.748,147.859 456.597,147.802 21.5,147.802C13.697,147.802 2.75,148.923 2.722,145.489C2.373,101.491 0.745,87.183 19.756,72.846C24.379,69.36 29.508,67.566 30.418,67.248C38.964,64.258 49.992,65.095 50.5,65.089ZM364.062,112.425C348.012,162.627 285.35,128.195 306.857,90.708C308.99,86.99 318.08,76.389 318.129,82.51C318.244,96.951 313.688,122.309 334.515,121.824C339.805,121.701 348.85,117.162 349.08,106.491C349.087,106.129 349.093,83.976 349.084,83.495C349.033,80.834 349.231,79.255 351.285,80.866C368.161,94.1 364.07,109.592 364.062,112.425ZM95.963,103.543C96.346,101.444 99.008,86.832 109.532,80.584C112.822,78.631 110.981,82.353 111.146,104.5C111.159,106.243 111.266,120.504 124.473,121.73C153.518,124.424 137.144,75.799 144.337,80.803C153.623,87.263 156.218,96.792 156.671,98.454C168.119,140.496 96.073,156.37 95.963,103.543Z" style="fill:rgb(39,24,110);fill-opacity:1;"/>
    </g>
</svg>
